<svg id="Layer_1" data-name="Layer 1" xmlns="http://www.w3.org/2000/svg" width="24" height="24" viewBox="0 0 24 24"><defs><style>.cls-1{fill:#111;}</style></defs><path class="cls-1" d="M20.5,19H14.1a3.5,3.5,0,0,0-.5-.8l-.8-.4V16.1a7.4,7.4,0,0,0,4.6-2.4,7.2,7.2,0,0,0,1.7-5.1,7.4,7.4,0,0,0-2.2-4.8A7.3,7.3,0,0,0,12,1.9h0A7.3,7.3,0,0,0,7.1,3.8,7.4,7.4,0,0,0,4.9,8.6a7.2,7.2,0,0,0,1.7,5.1,7.4,7.4,0,0,0,4.7,2.4v1.7l-.9.4a3.5,3.5,0,0,0-.5.8H3.5l-.5.2a1.4,1.4,0,0,0-.2.6.8.8,0,0,0,.2.5l.5.2H9.9A2.1,2.1,0,0,0,12,22.1a2.1,2.1,0,0,0,2.1-1.6h6.4l.5-.2a.8.8,0,0,0,.2-.5,1.4,1.4,0,0,0-.2-.6ZM12.7,3.8A9.8,9.8,0,0,1,14,8.3H10a9.8,9.8,0,0,1,1.3-4.5.8.8,0,0,1,1.4,0Zm1.3,6a10.2,10.2,0,0,1-1.3,4.5,1,1,0,0,1-1.4,0A10.2,10.2,0,0,1,10,9.8Zm.4,4.3a10.9,10.9,0,0,0,1.1-4.3h2.1a4.7,4.7,0,0,1-1.1,2.5A4.6,4.6,0,0,1,14.4,14.1Zm3.2-5.8H15.5a11.4,11.4,0,0,0-1.1-4.4,4.6,4.6,0,0,1,2.1,1.8A5,5,0,0,1,17.6,8.3Zm-8-4.4A11.4,11.4,0,0,0,8.5,8.3H6.4A5,5,0,0,1,7.5,5.7,4.6,4.6,0,0,1,9.6,3.9ZM6.4,9.8H8.5a10.9,10.9,0,0,0,1.1,4.3,4.6,4.6,0,0,1-2.1-1.8A4.7,4.7,0,0,1,6.4,9.8ZM12,20.6h-.4l-.3-.3c0-.2-.1-.3,0-.5a.8.8,0,0,1,.2-.4l.4-.2h.4q.1,0,.3.3a.5.5,0,0,1,.2.4c-.1.2-.1.4-.3.5Z"/></svg>